<svg width="129" height="108" viewBox="0 0 129 108" fill="none" xmlns="http://www.w3.org/2000/svg">
<circle cx="75" cy="54" r="51.5" stroke="url(#paint0_linear)" stroke-width="5"/>
<path fill-rule="evenodd" clip-rule="evenodd" d="M65.9489 32.2048C66.2508 31.9021 66.6095 31.662 67.0043 31.4982C67.3992 31.3343 67.8225 31.25 68.2499 31.25C68.6774 31.25 69.1007 31.3343 69.4956 31.4982C69.8904 31.662 70.2491 31.9021 70.551 32.2048L90.051 51.7048C90.3536 52.0067 90.5937 52.3653 90.7576 52.7602C90.9214 53.155 91.0058 53.5783 91.0058 54.0058C91.0058 54.4333 90.9214 54.8566 90.7576 55.2514C90.5937 55.6463 90.3536 56.0049 90.051 56.3068L70.551 75.8068C69.9407 76.4171 69.113 76.7599 68.2499 76.7599C67.3869 76.7599 66.5592 76.4171 65.9489 75.8068C65.3387 75.1965 64.9958 74.3689 64.9958 73.5058C64.9958 72.6428 65.3387 71.8151 65.9489 71.2048L83.1545 54.0058L65.9489 36.8068C65.6463 36.5049 65.4062 36.1463 65.2423 35.7514C65.0785 35.3566 64.9941 34.9333 64.9941 34.5058C64.9941 34.0783 65.0785 33.655 65.2423 33.2602C65.4062 32.8653 65.6463 32.5067 65.9489 32.2048Z" fill="black"/>
<path fill-rule="evenodd" clip-rule="evenodd" d="M13 54C13 53.138 13.3424 52.3114 13.9519 51.7019C14.5614 51.0924 15.388 50.75 16.25 50.75H84.5C85.362 50.75 86.1886 51.0924 86.7981 51.7019C87.4076 52.3114 87.75 53.138 87.75 54C87.75 54.862 87.4076 55.6886 86.7981 56.2981C86.1886 56.9076 85.362 57.25 84.5 57.25H16.25C15.388 57.25 14.5614 56.9076 13.9519 56.2981C13.3424 55.6886 13 54.862 13 54Z" fill="black"/>
<defs>
<linearGradient id="paint0_linear" x1="129" y1="54" x2="21" y2="54" gradientUnits="userSpaceOnUse">
<stop stop-color="#84C7FF"/>
<stop offset="0.452407" stop-color="#84C6FF"/>
<stop offset="1" stop-color="#C4C4C4"/>
</linearGradient>
</defs>
</svg>
