<svg width="68" height="42" viewBox="0 0 68 42" fill="none" xmlns="http://www.w3.org/2000/svg">
<path d="M45.0752 21.308L67.9997 34.0955V7.98047L45.0752 21.308Z" fill="#84C7FE"/>
<path d="M0 7.98047V34.0955L22.9245 21.308L0 7.98047Z" fill="#84C7FE"/>
<path d="M63.7495 0.375H4.24945C2.1287 0.375 0.445703 1.77 0.126953 3.56625L33.9995 23.2575L67.872 3.56625C67.5532 1.77 65.8702 0.375 63.7495 0.375Z" fill="#84C7FE"/>
<path d="M41.1832 23.5741L35.1695 27.0691C34.8125 27.2753 34.4087 27.3766 34.0007 27.3766C33.5927 27.3766 33.189 27.2753 32.832 27.0691L26.8182 23.5703L0.136719 38.4616C0.463969 40.2428 2.13847 41.6266 4.25072 41.6266H63.7507C65.863 41.6266 67.5375 40.2428 67.8647 38.4616L41.1832 23.5741Z" fill="#84C7FE"/>
</svg>
