<svg width="62" height="62" viewBox="0 0 62 62" fill="none" xmlns="http://www.w3.org/2000/svg">
<path d="M60.3129 45.5017L51.6606 36.8495C48.5705 33.7594 43.3173 34.9955 42.0813 39.0125C41.1542 41.7938 38.0641 43.3388 35.283 42.7207C29.1028 41.1756 20.7596 33.1413 19.2145 26.6521C18.2875 23.8709 20.1415 20.7808 22.9226 19.8539C26.9398 18.6179 28.1758 13.3647 25.0857 10.2746L16.4334 1.6223C13.9613 -0.540768 10.2532 -0.540768 8.09014 1.6223L2.21894 7.4935C-3.65225 13.6737 2.83696 30.0512 17.3604 44.5747C31.8839 59.0982 48.2615 65.8965 54.4417 59.7162L60.3129 53.845C62.476 51.3729 62.476 47.6648 60.3129 45.5017Z" fill="#84C7FE"/>
</svg>
