<svg width="142" height="142" viewBox="0 0 142 142" fill="none" xmlns="http://www.w3.org/2000/svg">
<g clip-path="url(#clip0)">
<path d="M84.0427 17.0779C82.5511 16.7188 81.0554 17.6354 80.6965 19.1242C80.3376 20.6132 81.2537 22.1114 82.7428 22.4703C105.222 27.8893 120.921 47.8452 120.921 70.9994C120.921 98.5262 98.5269 120.921 70.9998 120.921C43.4727 120.921 21.0781 98.5262 21.0781 70.9994C21.0781 47.846 36.7768 27.8901 59.2549 22.4706C60.7439 22.1114 61.66 20.6132 61.3011 19.1244C60.942 17.6354 59.4432 16.7199 57.955 17.0782C46.0625 19.9456 35.288 26.8201 27.6165 36.4353C19.7102 46.3445 15.5312 58.2966 15.5312 70.9994C15.5312 101.585 40.4144 126.468 70.9998 126.468C101.585 126.468 126.468 101.585 126.468 70.9994C126.468 58.2963 122.289 46.3439 114.383 36.4345C106.711 26.8196 95.9357 19.9451 84.0427 17.0779Z" fill="#161616"/>
<path d="M140.328 64.3291L137.083 58.2755L137.624 50.7917C138.145 45.9948 136.231 41.3132 132.499 38.2603L127.113 33.85L124.995 27.4677C123.808 22.5879 120.102 18.6657 115.294 17.2133L108.645 15.2048L103.554 9.31955C100.541 5.77594 95.9816 3.93272 91.3558 4.38728L84.4556 5.07482L77.6726 1.6721C73.4925 -0.556349 68.5086 -0.558291 64.328 1.67182L58.2747 4.91618L50.7911 4.3748C45.9923 3.85451 41.3124 5.76817 38.2597 9.49982L33.8491 14.8858L27.4672 17.0044C22.5871 18.1909 18.6649 21.897 17.2124 26.7053L15.2042 33.3535L9.31898 38.4452C5.77566 41.4577 3.93133 46.0167 4.38645 50.6433L5.07398 57.5436L1.67126 64.3266C-0.557465 68.507 -0.559129 73.4905 1.67071 77.6715L4.91534 83.7248L4.37397 91.2086C3.85395 96.0055 5.76733 100.687 9.49898 103.74L14.885 108.15L17.0036 114.533C18.1898 119.412 21.8959 123.335 26.7048 124.787L33.3527 126.795L38.4444 132.681C41.4572 136.224 46.015 138.068 50.6425 137.613L57.5425 136.925L64.3249 140.328C66.4158 141.443 68.7078 142 70.9997 142C73.29 142 75.5803 141.443 77.6701 140.329L83.7236 137.084L91.2072 137.626C96.0038 138.145 100.685 136.232 103.739 132.501L108.149 127.115L114.532 124.996C119.411 123.81 123.333 120.104 124.786 115.295L126.794 108.647L132.68 103.556C136.223 100.543 138.067 95.9841 137.612 91.3572L136.924 84.4575L140.327 77.6745C142.556 73.4939 142.558 68.51 140.328 64.3291ZM135.42 75.0861C135.408 75.1088 135.396 75.1316 135.385 75.1543L131.606 82.6883C131.37 83.1576 131.273 83.6843 131.325 84.2071L132.092 91.9033C132.369 94.7175 131.245 97.4937 129.069 99.3447L122.557 104.978C122.16 105.322 121.869 105.771 121.717 106.273L119.476 113.691C118.583 116.648 116.156 118.922 113.142 119.625C113.06 119.644 112.978 119.667 112.898 119.694L105.639 122.103C105.141 122.268 104.699 122.572 104.367 122.978L99.4468 128.987C97.578 131.271 94.7072 132.438 91.7696 132.107C91.733 132.103 91.6961 132.1 91.6598 132.097L83.3223 131.494C82.7973 131.456 82.2748 131.568 81.8122 131.816L75.055 135.437C72.5068 136.796 69.4632 136.791 66.9131 135.421C66.8903 135.41 66.8676 135.398 66.8448 135.386L59.3111 131.607C58.9239 131.413 58.4979 131.313 58.0675 131.313C57.976 131.313 57.8842 131.317 57.7924 131.326L50.0961 132.093C47.2822 132.371 44.5057 131.246 42.6547 129.07L37.0214 122.558C36.678 122.161 36.2287 121.87 35.7259 121.718L28.3084 119.477C25.3505 118.584 23.0768 116.157 22.3743 113.143C22.3552 113.061 22.3322 112.98 22.3056 112.899L19.8963 105.64C19.731 105.141 19.4276 104.7 19.0213 104.368L13.0126 99.4476C10.7284 97.5789 9.56194 94.7089 9.89253 91.7708C9.89669 91.7341 9.90002 91.6975 9.90279 91.6606L10.5057 83.3229C10.5437 82.7993 10.432 82.2757 10.184 81.8128L6.5622 75.0561C5.20322 72.5079 5.20904 69.4644 6.57773 66.9142C6.58993 66.8917 6.60158 66.869 6.61295 66.8462L10.392 59.3122C10.6275 58.843 10.7248 58.3163 10.6727 57.7938L9.90584 50.097C9.62906 47.2828 10.7526 44.5066 12.9294 42.6556L19.4409 37.0222C19.838 36.6786 20.1292 36.2296 20.2812 35.727L22.5222 28.3092C23.4155 25.3516 25.8425 23.078 28.8561 22.3752C28.9385 22.356 29.0197 22.333 29.1002 22.3064L36.3591 19.8968C36.8574 19.7315 37.2984 19.4281 37.631 19.0218L42.5516 13.0129C44.4203 10.729 47.2911 9.56305 50.2284 9.89309C50.265 9.89725 50.3016 9.90058 50.3382 9.90335L58.6757 10.5063C59.198 10.5435 59.723 10.4325 60.1859 10.1846L66.9427 6.56304C69.4907 5.20406 72.5345 5.2096 75.0844 6.57857C75.1069 6.59049 75.1296 6.60242 75.1526 6.61379L82.6867 10.3929C83.1559 10.6283 83.6826 10.726 84.2051 10.6735L91.9016 9.90668C94.7156 9.62934 97.492 10.7534 99.343 12.9303L104.976 19.4417C105.32 19.8389 105.769 20.1301 106.272 20.2821L113.689 22.523C116.647 23.4163 118.921 25.8436 119.623 28.857C119.643 28.9393 119.666 29.0206 119.692 29.101L122.102 36.3599C122.267 36.8583 122.57 37.2993 122.977 37.6318L128.986 42.5521C131.27 44.4209 132.436 47.2905 132.106 50.229C132.101 50.2656 132.098 50.3022 132.096 50.3391L131.493 58.6768C131.455 59.2005 131.566 59.7241 131.814 60.187L135.436 66.9439C136.795 69.4926 136.789 72.5362 135.42 75.0861Z" fill="#0D0D0D"/>
<path d="M58.9637 55.8897C58.5189 54.9523 57.5662 54.3025 56.4596 54.3025H41.8057C40.2739 54.3025 39.0322 55.5441 39.0322 57.0759V99.0561C39.0322 100.588 40.2739 101.83 41.8057 101.83H56.4596C57.6092 101.83 58.5951 101.13 59.0156 100.134C61.1298 100.431 63.3078 101.032 65.5753 101.66C68.9844 102.604 72.5092 103.58 76.1715 103.58H92.1822C97.1316 103.58 101.142 100.956 102.911 96.5601C103.772 94.4184 103.923 92.1958 103.42 90.3351C104.341 89.5072 105.119 88.4766 105.707 87.2732C106.9 84.8348 107.138 82.0928 106.462 79.7833C107.723 78.5658 108.663 76.958 109.154 75.0624C109.614 73.2902 109.606 71.5415 109.197 70.0264C111.699 68.5548 113.383 65.8812 113.383 62.8687C113.383 60.5061 112.463 58.3289 110.793 56.7386C109.189 55.2116 107.052 54.3704 104.777 54.3704L82.2089 54.371C80.4944 52.2202 79.9608 49.3014 80.937 46.9521C82.9406 42.1302 82.8163 38.0485 80.5352 33.7181C78.8417 30.504 74.2883 27.304 70.4613 27.8504C68.1479 28.1809 66.4742 29.8159 65.9833 32.2243C65.8388 32.9329 65.7991 33.6984 65.7534 34.5848C65.6402 36.7714 65.4849 39.7661 63.5973 43.3824C62.3179 45.8338 61.8911 48.3551 61.5145 50.5797C60.975 53.7664 60.7135 55.3015 58.9637 55.8897ZM44.5791 59.8493H53.6862V96.2827H44.5791V59.8493ZM66.9837 51.5055C67.3068 49.5971 67.6407 47.6235 68.5149 45.9492C70.9619 41.261 71.169 37.2614 71.293 34.8718C71.326 34.2353 71.3571 33.6341 71.4186 33.3318C71.4189 33.3298 71.4195 33.3276 71.42 33.3257C72.3821 33.339 74.7498 34.6378 75.6276 36.304C77.1469 39.1873 77.1973 41.4967 75.8151 44.8243C74.5684 47.8246 74.6622 51.3061 75.8952 54.4015C74.546 54.5892 73.5065 55.7444 73.5065 57.1452C73.5065 58.6767 74.7484 59.9187 76.2799 59.9187L104.777 59.9178C105.622 59.9178 106.4 60.2157 106.968 60.7565C107.364 61.1334 107.837 61.8062 107.837 62.869C107.837 64.3567 106.473 65.643 104.858 65.6782L97.7199 65.8335C96.1887 65.8668 94.9742 67.1351 95.0075 68.6666C95.0405 70.1776 96.2752 71.3798 97.7792 71.3798C97.7995 71.3798 97.82 71.3798 97.8408 71.3793L103.786 71.25C103.98 71.7995 104.081 72.8475 103.672 74.0482C103.325 75.0693 102.392 76.7822 100.046 76.7822C98.5145 76.7822 97.2725 78.0239 97.2725 79.5556C97.2725 81.0874 98.5145 82.329 100.046 82.329C100.466 82.329 100.879 82.303 101.283 82.2517C101.317 83.0365 101.156 83.9559 100.725 84.8362C100.216 85.8768 99.2095 87.1176 97.3064 87.1176C95.7749 87.1176 94.5329 88.3593 94.5329 89.8911C94.5329 91.4228 95.7749 92.6645 97.3064 92.6645C97.5934 92.6645 97.8774 92.6517 98.1578 92.6265C98.1506 93.1587 98.0424 93.8241 97.7398 94.5518C97.305 95.5985 95.8925 98.0327 92.1827 98.0327H76.172C73.2635 98.0327 70.2483 97.1979 67.056 96.3141C64.5159 95.6107 61.9113 94.8902 59.2336 94.5685V61.5028C65.4777 60.3713 66.3386 55.3164 66.9837 51.5055Z" fill="#84C6FF"/>
<path d="M71.0008 21.0781C72.5326 21.0781 73.7743 19.8365 73.7743 18.3047C73.7743 16.7729 72.5326 15.5312 71.0008 15.5312H70.9989C69.4671 15.5312 68.2266 16.7729 68.2266 18.3047C68.2266 19.8365 69.4691 21.0781 71.0008 21.0781Z" fill="black"/>
</g>
<defs>
<clipPath id="clip0">
<rect width="142" height="142" fill="white"/>
</clipPath>
</defs>
</svg>
