<svg width="252" height="135" viewBox="0 0 252 135" fill="none" xmlns="http://www.w3.org/2000/svg">
<path d="M125.18 130.656L106.716 43.7812H145.29L126.826 130.656H125.18ZM109.751 35.0938L126.001 11.9242L142.251 35.0938H109.751ZM153.618 43.7812H191.147L136.559 124.036L153.618 43.7812ZM158.501 35.0938L174.751 11.9242L191.001 35.0938H158.501ZM150.376 32.2008L134.126 9.03125H166.626L150.376 32.2008ZM101.626 32.2008L85.3759 9.03125H117.876L101.626 32.2008ZM93.5009 35.0938H61.0009L77.2509 11.9242L93.5009 35.0938ZM98.384 43.7812L115.442 124.036L60.8546 43.7812H98.384Z" fill="#84C6FF"/>
<path d="M211.312 35.0938H251.938V43.7812H211.312V35.0938Z" fill="black"/>
<path d="M207.374 11.5938L246.618 0.343442L248.722 8.73557L209.478 19.9859L207.374 11.5938Z" fill="black"/>
<path d="M3.30859 8.77344L5.41297 0.381312L44.6567 11.6316L42.5523 20.0237L3.30859 8.77344Z" fill="black"/>
<path d="M0.0625 35.0938H40.6875V43.7812H0.0625V35.0938Z" fill="black"/>
<path d="M3.31738 70.1016L42.5611 58.8512L44.6655 67.2434L5.42176 78.4937L3.31738 70.1016Z" fill="black"/>
<path d="M207.407 67.2422L209.512 58.8501L248.755 70.1004L246.651 78.4925L207.407 67.2422Z" fill="black"/>
</svg>
