<svg width="142" height="142" viewBox="0 0 142 142" fill="none" xmlns="http://www.w3.org/2000/svg">
<g clip-path="url(#clip0)">
<path d="M130.303 61.9234V20.7357C130.303 19.6161 129.582 18.6232 128.517 18.2777L72.6668 0.127467C72.1013 -0.057241 71.5167 -0.0347765 70.9992 0.15326C70.4769 -0.0331124 69.894 -0.0555769 69.3285 0.127467L13.4798 18.2777C12.4145 18.623 11.6934 19.6142 11.6934 20.7357L11.6968 61.8255C11.6743 62.4262 10.1048 122.172 69.6629 141.868C69.9247 141.957 70.201 142 70.4758 142H71.525C71.7998 142 72.0761 141.957 72.3379 141.868C131.894 122.172 130.325 62.4245 130.303 61.9234ZM71.1054 136.83H70.8932C15.4766 118.254 16.7779 64.3107 16.8617 61.9234V22.6122L70.924 5.04331C70.9498 5.03526 70.9739 5.02556 70.9994 5.01752C71.0219 5.02556 71.0477 5.03526 71.0718 5.04331L125.136 22.6136L125.139 62.023C125.16 62.5821 126.623 118.211 71.1054 136.83Z" fill="#84C7FE"/>
<path d="M114.171 28.0823L72.259 13.9785C71.8959 13.8581 71.5199 13.829 71.1713 13.8581C70.821 13.8309 70.4499 13.8581 70.0835 13.9785L28.1762 28.082C27.127 28.437 26.417 29.4218 26.417 30.532L26.4203 62.6252C26.4347 63.0861 28.5298 108.996 70.238 125.152C70.5384 125.268 70.8565 125.326 71.1713 125.326C71.486 125.326 71.8041 125.268 72.1045 125.152C113.814 108.996 115.912 63.0864 115.93 62.5337V30.532C115.929 29.4221 115.22 28.4373 114.171 28.0823ZM71.1713 119.967C33.5854 104.738 31.5996 62.8679 31.5852 62.5353V32.3891L71.1713 19.0663L110.762 32.3891L110.764 62.4422C110.746 62.8662 108.757 104.738 71.1713 119.967Z" fill="#84C7FE"/>
<path d="M100.755 51.9136C99.6557 50.9948 98.0249 51.149 97.1142 52.2414L67.2059 88.0634L47.9133 67.8038C46.9221 66.766 45.2916 66.7338 44.2602 67.7123C43.2257 68.6971 43.1855 70.334 44.1687 71.3654L65.4598 93.7248C65.9498 94.2373 66.626 94.5279 67.3329 94.5279C67.3601 94.5279 67.3875 94.528 67.4164 94.5246C68.1538 94.5022 68.8447 94.1632 69.317 93.5991L101.083 55.552C101.996 54.4568 101.85 52.8277 100.755 51.9136Z" fill="#232323"/>
</g>
<defs>
<clipPath id="clip0">
<rect width="142" height="142" fill="white"/>
</clipPath>
</defs>
</svg>
