<svg width="455" height="311" viewBox="0 0 455 311" fill="none" xmlns="http://www.w3.org/2000/svg">
<g clip-path="url(#clip0)">
<path d="M446.864 282.814C443.751 293.615 434.661 301.176 425.18 307.599C423.856 308.496 422.531 309.372 421.207 310.228C421.198 310.232 421.189 310.24 421.179 310.244C421.116 310.285 421.052 310.326 420.993 310.367C420.719 310.543 420.446 310.72 420.174 310.894L420.323 310.961C420.323 310.961 420.47 311.039 420.31 310.973C420.262 310.954 420.212 310.936 420.165 310.916C414.656 308.694 409.05 306.308 404.829 302.146C400.45 297.824 397.891 291.044 400.262 285.366C400.574 284.622 400.968 283.916 401.436 283.259C401.628 282.984 401.836 282.721 402.051 282.462C403.359 280.865 405.069 279.646 407.004 278.929C408.939 278.213 411.03 278.024 413.063 278.384C415.095 278.744 416.994 279.638 418.566 280.975C420.138 282.313 421.326 284.045 422.007 285.993C422.703 279.506 417.355 274.073 412.208 270.064C407.06 266.056 401.209 261.693 400.213 255.242C399.658 251.653 400.905 248.175 403.179 245.383C403.249 245.298 403.319 245.213 403.392 245.13C406.159 241.878 410.051 239.79 414.29 239.283C422.186 238.462 429.855 242.642 435.59 248.132C444.822 256.965 450.403 270.534 446.864 282.814Z" fill="#4D86B4"/>
<path d="M432.023 268.689C433.539 271.046 434.702 273.613 435.477 276.306C436.132 278.714 436.423 281.206 436.342 283.699C436.13 288.831 434.69 293.837 432.142 298.295C430.222 301.678 427.883 304.805 425.179 307.601C423.855 308.498 422.531 309.374 421.206 310.23C421.197 310.233 421.188 310.242 421.179 310.246C421.115 310.287 421.051 310.328 420.992 310.369C420.719 310.545 420.445 310.722 420.174 310.896C420.174 310.896 420.469 311.041 420.309 310.975C420.261 310.955 420.212 310.938 420.164 310.918C420.658 306.869 420.174 302.762 418.754 298.939C417.333 295.117 415.017 291.69 412 288.947C408.976 286.246 405.356 284.297 401.436 283.261C401.628 282.986 401.835 282.722 402.051 282.464C403.565 282.889 405.038 283.446 406.454 284.13C411.516 286.561 415.66 290.558 418.274 295.527C420.619 300.04 421.629 305.129 421.184 310.195C421.41 309.99 421.637 309.781 421.856 309.573C426.042 305.67 429.76 301.19 432.276 296.02C434.459 291.642 435.531 286.794 435.4 281.903C435.194 276.57 433.07 271.631 429.994 267.331C426.623 262.743 422.64 258.638 418.157 255.13C413.639 251.51 408.695 248.458 403.435 246.039C403.316 245.984 403.223 245.885 403.176 245.763C403.128 245.641 403.129 245.506 403.178 245.385C403.213 245.276 403.29 245.185 403.391 245.132C403.443 245.11 403.5 245.099 403.557 245.102C403.614 245.104 403.669 245.12 403.719 245.146C404.369 245.445 405.014 245.748 405.653 246.065C410.982 248.699 415.962 251.984 420.48 255.846C424.844 259.568 428.953 263.819 432.023 268.689Z" fill="#ABEFF1"/>
<path d="M379.396 7.00524e-09L5.37293 7.00524e-09C3.94831 0.00129732 2.58241 0.567888 1.57507 1.5754C0.56772 2.58292 0.00125139 3.94903 0 5.37385L0 258.857C0.00124976 260.282 0.56772 261.648 1.57507 262.655C2.58241 263.663 3.94831 264.229 5.37293 264.231H379.396C380.172 264.231 380.94 264.062 381.645 263.737C382.351 263.411 382.977 262.936 383.481 262.345C383.524 262.299 383.563 262.249 383.598 262.197C383.919 261.805 384.179 261.366 384.368 260.897C384.639 260.251 384.777 259.557 384.775 258.857V5.37388C384.773 3.94805 384.206 2.58116 383.197 1.57352C382.189 0.565887 380.821 -7.2704e-05 379.396 7.00524e-09ZM383.241 258.857C383.241 259.607 383.02 260.34 382.606 260.965C382.238 261.514 381.738 261.964 381.152 262.271C380.609 262.552 380.007 262.697 379.396 262.696H5.37293C4.35519 262.695 3.37949 262.29 2.65984 261.57C1.94019 260.851 1.53535 259.875 1.53412 258.857V5.37388C1.53535 4.356 1.94019 3.38017 2.65984 2.66042C3.37949 1.94067 4.35519 1.53576 5.37293 1.53453H379.396C380.414 1.5344 381.391 1.93865 382.112 2.65852C382.833 3.37838 383.239 4.355 383.241 5.37388V258.857Z" fill="#3F3D56"/>
<path d="M384.005 21.5391H0.766113V23.0753H384.005V21.5391Z" fill="#3F3D56"/>
<path d="M13.822 16.1315C16.3669 16.1315 18.43 14.0681 18.43 11.5228C18.43 8.97746 16.3669 6.91406 13.822 6.91406C11.277 6.91406 9.21387 8.97746 9.21387 11.5228C9.21387 14.0681 11.277 16.1315 13.822 16.1315Z" fill="#3F3D56"/>
<path d="M27.07 16.1315C29.615 16.1315 31.6781 14.0681 31.6781 11.5228C31.6781 8.97746 29.615 6.91406 27.07 6.91406C24.525 6.91406 22.4619 8.97746 22.4619 11.5228C22.4619 14.0681 24.525 16.1315 27.07 16.1315Z" fill="#3F3D56"/>
<path d="M40.3185 16.1315C42.8635 16.1315 44.9266 14.0681 44.9266 11.5228C44.9266 8.97746 42.8635 6.91406 40.3185 6.91406C37.7736 6.91406 35.7104 8.97746 35.7104 11.5228C35.7104 14.0681 37.7736 16.1315 40.3185 16.1315Z" fill="#3F3D56"/>
<path d="M248.206 108.069C245.747 108.069 243.344 107.339 241.3 105.973C239.255 104.607 237.662 102.665 236.721 100.394C235.78 98.1218 235.534 95.622 236.014 93.2103C236.493 90.7986 237.677 88.5833 239.416 86.8446C241.154 85.1058 243.369 83.9217 245.781 83.442C248.192 82.9623 250.692 83.2085 252.963 84.1495C255.235 85.0905 257.176 86.684 258.542 88.7286C259.908 90.7731 260.637 93.1769 260.637 95.6358C260.633 98.932 259.322 102.092 256.992 104.423C254.661 106.754 251.502 108.065 248.206 108.069ZM248.206 84.3814C245.98 84.3814 243.805 85.0415 241.954 86.2781C240.104 87.5148 238.661 89.2725 237.81 91.329C236.958 93.3854 236.735 95.6483 237.169 97.8315C237.603 100.015 238.675 102.02 240.249 103.594C241.823 105.168 243.828 106.24 246.011 106.674C248.193 107.108 250.456 106.885 252.512 106.034C254.568 105.182 256.326 103.739 257.562 101.888C258.799 100.038 259.459 97.8617 259.459 95.6358C259.455 92.652 258.269 89.7914 256.159 87.6815C254.05 85.5716 251.189 84.3848 248.206 84.3814Z" fill="#84C7FE"/>
<path d="M247.032 100.152C246.766 100.153 246.506 100.066 246.293 99.9065L246.28 99.8966L243.497 97.7674C243.237 97.5678 243.066 97.273 243.023 96.9477C242.98 96.6225 243.068 96.2935 243.268 96.0332C243.468 95.7729 243.762 95.6025 244.087 95.5595C244.413 95.5165 244.742 95.6045 245.002 95.8041L246.804 97.1866L251.064 91.6287C251.163 91.4998 251.286 91.3917 251.427 91.3104C251.567 91.2292 251.722 91.1764 251.883 91.1552C252.044 91.1339 252.208 91.1446 252.365 91.1865C252.522 91.2285 252.669 91.3009 252.797 91.3997L252.798 91.4L252.771 91.4367L252.798 91.4C253.058 91.5998 253.228 91.8946 253.271 92.2196C253.314 92.5447 253.226 92.8735 253.027 93.1338L248.017 99.6683C247.901 99.8188 247.752 99.9407 247.581 100.024C247.411 100.108 247.223 100.151 247.033 100.151L247.032 100.152Z" fill="#84C7FE"/>
<path d="M283.775 108.069C281.316 108.069 278.913 107.339 276.868 105.973C274.824 104.607 273.231 102.665 272.29 100.394C271.349 98.1218 271.103 95.622 271.583 93.2103C272.062 90.7986 273.246 88.5833 274.985 86.8446C276.723 85.1058 278.938 83.9217 281.35 83.442C283.761 82.9623 286.26 83.2085 288.532 84.1495C290.803 85.0905 292.745 86.684 294.111 88.7286C295.477 90.7731 296.206 93.1769 296.206 95.6358C296.202 98.9321 294.891 102.092 292.561 104.423C290.23 106.754 287.071 108.065 283.775 108.069ZM283.775 84.3814C281.549 84.3814 279.374 85.0415 277.523 86.2781C275.672 87.5148 274.23 89.2725 273.378 91.329C272.527 93.3854 272.304 95.6483 272.738 97.8315C273.172 100.015 274.244 102.02 275.818 103.594C277.391 105.168 279.397 106.24 281.579 106.674C283.762 107.108 286.025 106.885 288.081 106.034C290.137 105.182 291.895 103.739 293.131 101.888C294.368 100.038 295.028 97.8617 295.028 95.6358C295.024 92.652 293.838 89.7913 291.728 87.6814C289.618 85.5715 286.758 84.3847 283.775 84.3814Z" fill="#E6E6E6"/>
<path d="M288.249 99.9366C288.1 100.086 287.897 100.169 287.686 100.169C287.475 100.169 287.273 100.086 287.124 99.9366L284.141 96.9532C284.074 96.8868 283.984 96.8495 283.89 96.8495C283.796 96.8495 283.706 96.8868 283.639 96.9532L280.656 99.9365C280.507 100.086 280.305 100.17 280.094 100.17C279.883 100.17 279.68 100.086 279.531 99.9365C279.382 99.7873 279.298 99.5848 279.298 99.3737C279.298 99.1627 279.382 98.9602 279.531 98.811L282.514 95.8276C282.58 95.7611 282.618 95.671 282.618 95.577C282.618 95.483 282.58 95.3928 282.514 95.3262L279.531 92.3427C279.382 92.1935 279.298 91.9911 279.298 91.7801C279.298 91.5691 279.382 91.3667 279.531 91.2174C279.68 91.0682 279.882 90.9844 280.093 90.9844C280.304 90.9844 280.507 91.0682 280.656 91.2174L283.639 94.2009C283.706 94.2673 283.796 94.3046 283.89 94.3046C283.984 94.3046 284.074 94.2673 284.14 94.2009L287.123 91.2175C287.273 91.0683 287.475 90.9844 287.686 90.9844C287.897 90.9844 288.1 91.0683 288.249 91.2175C288.398 91.3668 288.482 91.5692 288.482 91.7803C288.482 91.9914 288.398 92.1938 288.249 92.343L285.266 95.3264C285.199 95.393 285.162 95.4831 285.162 95.5772C285.162 95.6712 285.199 95.7614 285.266 95.8279L288.249 98.8113C288.398 98.9606 288.481 99.163 288.481 99.3739C288.481 99.5849 288.398 99.7872 288.249 99.9366Z" fill="#E6E6E6"/>
<path d="M248.206 147.541C245.747 147.541 243.344 146.812 241.3 145.446C239.255 144.08 237.662 142.138 236.721 139.866C235.78 137.594 235.534 135.095 236.014 132.683C236.493 130.271 237.677 128.056 239.416 126.317C241.154 124.578 243.369 123.394 245.781 122.915C248.192 122.435 250.692 122.681 252.963 123.622C255.235 124.563 257.176 126.157 258.542 128.201C259.908 130.246 260.637 132.65 260.637 135.108C260.633 138.405 259.322 141.565 256.992 143.896C254.661 146.226 251.502 147.537 248.206 147.541ZM248.206 123.854C245.98 123.854 243.805 124.514 241.954 125.751C240.104 126.987 238.661 128.745 237.81 130.802C236.958 132.858 236.735 135.121 237.169 137.304C237.603 139.487 238.675 141.493 240.249 143.067C241.823 144.641 243.828 145.712 246.011 146.147C248.193 146.581 250.456 146.358 252.512 145.506C254.568 144.654 256.326 143.212 257.562 141.361C258.799 139.51 259.459 137.334 259.459 135.108C259.455 132.125 258.269 129.264 256.159 127.154C254.05 125.044 251.189 123.857 248.206 123.854Z" fill="#84C7FE"/>
<path d="M247.032 139.629C246.766 139.629 246.506 139.543 246.293 139.383L246.28 139.373L243.497 137.244C243.237 137.044 243.066 136.75 243.023 136.424C242.98 136.099 243.068 135.77 243.268 135.51C243.468 135.249 243.762 135.079 244.087 135.036C244.413 134.993 244.742 135.081 245.002 135.281L246.804 136.663L251.064 131.105C251.163 130.976 251.286 130.868 251.427 130.787C251.567 130.706 251.722 130.653 251.883 130.632C252.044 130.61 252.208 130.621 252.365 130.663C252.522 130.705 252.669 130.777 252.797 130.876L252.798 130.877L252.771 130.913L252.798 130.877C253.058 131.076 253.228 131.371 253.271 131.696C253.314 132.021 253.226 132.35 253.027 132.61L248.017 139.145C247.901 139.295 247.752 139.417 247.581 139.501C247.411 139.585 247.223 139.628 247.033 139.627L247.032 139.629Z" fill="#84C7FE"/>
<path d="M283.775 147.541C281.316 147.541 278.913 146.812 276.868 145.446C274.824 144.08 273.231 142.138 272.29 139.866C271.349 137.594 271.103 135.095 271.583 132.683C272.062 130.271 273.246 128.056 274.985 126.317C276.723 124.578 278.938 123.394 281.35 122.915C283.761 122.435 286.26 122.681 288.532 123.622C290.803 124.563 292.745 126.157 294.111 128.201C295.477 130.246 296.206 132.65 296.206 135.108C296.202 138.405 294.891 141.565 292.561 143.896C290.23 146.226 287.071 147.537 283.775 147.541ZM283.775 123.854C281.549 123.854 279.374 124.514 277.523 125.751C275.672 126.987 274.23 128.745 273.378 130.802C272.527 132.858 272.304 135.121 272.738 137.304C273.172 139.487 274.244 141.493 275.818 143.067C277.391 144.641 279.397 145.712 281.579 146.147C283.762 146.581 286.025 146.358 288.081 145.506C290.137 144.654 291.895 143.212 293.131 141.361C294.368 139.51 295.028 137.334 295.028 135.108C295.024 132.125 293.838 129.264 291.728 127.154C289.618 125.044 286.758 123.857 283.775 123.854Z" fill="#E6E6E6"/>
<path d="M288.249 139.409C288.1 139.558 287.898 139.642 287.687 139.642C287.476 139.642 287.273 139.558 287.124 139.409L284.141 136.426C284.075 136.359 283.984 136.322 283.89 136.322C283.796 136.322 283.706 136.359 283.64 136.426L280.657 139.409C280.508 139.558 280.305 139.642 280.094 139.642C279.883 139.642 279.681 139.558 279.531 139.409C279.382 139.26 279.298 139.057 279.298 138.846C279.298 138.635 279.382 138.433 279.531 138.284L282.514 135.3C282.581 135.234 282.618 135.144 282.618 135.05C282.618 134.956 282.581 134.865 282.514 134.799L279.531 131.815C279.382 131.666 279.298 131.464 279.298 131.253C279.298 131.042 279.382 130.839 279.531 130.69C279.681 130.541 279.883 130.457 280.094 130.457C280.305 130.457 280.507 130.541 280.656 130.69L283.64 133.674C283.706 133.74 283.796 133.777 283.89 133.777C283.984 133.777 284.074 133.74 284.141 133.674L287.124 130.69C287.273 130.541 287.475 130.457 287.686 130.457C287.898 130.457 288.1 130.541 288.249 130.69C288.398 130.839 288.482 131.042 288.482 131.253C288.482 131.464 288.398 131.666 288.249 131.816L285.266 134.799C285.2 134.866 285.163 134.956 285.163 135.05C285.163 135.144 285.2 135.234 285.266 135.301L288.249 138.284C288.398 138.433 288.482 138.636 288.482 138.847C288.482 139.058 288.398 139.26 288.249 139.409Z" fill="#E6E6E6"/>
<path d="M248.206 187.01C245.747 187.01 243.344 186.281 241.3 184.915C239.255 183.549 237.662 181.607 236.721 179.335C235.78 177.063 235.534 174.563 236.014 172.152C236.493 169.74 237.677 167.525 239.416 165.786C241.154 164.047 243.369 162.863 245.781 162.383C248.192 161.904 250.692 162.15 252.963 163.091C255.235 164.032 257.176 165.625 258.542 167.67C259.908 169.715 260.637 172.118 260.637 174.577C260.633 177.873 259.322 181.034 256.992 183.364C254.661 185.695 251.502 187.006 248.206 187.01ZM248.206 163.323C245.98 163.323 243.805 163.983 241.954 165.22C240.104 166.456 238.661 168.214 237.81 170.27C236.958 172.327 236.735 174.59 237.169 176.773C237.603 178.956 238.675 180.961 240.249 182.535C241.823 184.109 243.828 185.181 246.011 185.615C248.193 186.05 250.456 185.827 252.512 184.975C254.568 184.123 256.326 182.681 257.562 180.83C258.799 178.979 259.459 176.803 259.459 174.577C259.455 171.593 258.269 168.733 256.159 166.623C254.05 164.513 251.189 163.326 248.206 163.323Z" fill="#E6E6E6"/>
<path d="M247.032 179.097C246.766 179.098 246.506 179.012 246.293 178.852L246.28 178.842L243.497 176.713C243.237 176.513 243.066 176.218 243.023 175.893C242.98 175.568 243.068 175.239 243.268 174.978C243.468 174.718 243.762 174.548 244.087 174.505C244.413 174.462 244.742 174.55 245.002 174.749L246.804 176.132L251.064 170.574C251.163 170.445 251.286 170.337 251.427 170.256C251.567 170.175 251.722 170.122 251.883 170.1C252.044 170.079 252.208 170.09 252.365 170.132C252.522 170.174 252.669 170.246 252.797 170.345L252.798 170.345L252.771 170.382L252.798 170.345C253.058 170.545 253.228 170.84 253.271 171.165C253.314 171.49 253.226 171.819 253.027 172.079L248.017 178.614C247.901 178.764 247.752 178.886 247.581 178.97C247.411 179.053 247.223 179.096 247.033 179.096L247.032 179.097Z" fill="#E6E6E6"/>
<path d="M283.775 187.01C281.316 187.01 278.913 186.281 276.868 184.915C274.824 183.549 273.231 181.607 272.29 179.335C271.349 177.063 271.103 174.563 271.583 172.152C272.062 169.74 273.246 167.525 274.985 165.786C276.723 164.047 278.938 162.863 281.35 162.383C283.761 161.904 286.26 162.15 288.532 163.091C290.803 164.032 292.745 165.625 294.111 167.67C295.477 169.715 296.206 172.118 296.206 174.577C296.202 177.873 294.891 181.034 292.561 183.364C290.23 185.695 287.071 187.006 283.775 187.01ZM283.775 163.323C281.549 163.323 279.374 163.983 277.523 165.22C275.672 166.456 274.23 168.214 273.378 170.27C272.527 172.327 272.304 174.59 272.738 176.773C273.172 178.956 274.244 180.961 275.818 182.535C277.391 184.109 279.397 185.181 281.579 185.615C283.762 186.05 286.025 185.827 288.081 184.975C290.137 184.123 291.895 182.681 293.131 180.83C294.368 178.979 295.028 176.803 295.028 174.577C295.024 171.593 293.838 168.733 291.728 166.623C289.618 164.513 286.758 163.326 283.775 163.323Z" fill="#E6E6E6"/>
<path d="M288.249 178.882C288.1 179.031 287.898 179.115 287.687 179.115C287.476 179.115 287.273 179.031 287.124 178.882L284.141 175.899C284.075 175.832 283.984 175.795 283.89 175.795C283.796 175.795 283.706 175.832 283.64 175.898L280.657 178.882C280.508 179.031 280.305 179.115 280.094 179.115C279.883 179.115 279.681 179.031 279.531 178.882C279.382 178.733 279.298 178.53 279.298 178.319C279.298 178.108 279.382 177.906 279.531 177.756L282.514 174.773C282.581 174.706 282.618 174.616 282.618 174.522C282.618 174.428 282.581 174.338 282.514 174.272L279.531 171.288C279.382 171.139 279.298 170.936 279.298 170.725C279.298 170.514 279.382 170.312 279.531 170.163C279.681 170.014 279.883 169.93 280.094 169.93C280.305 169.93 280.507 170.014 280.657 170.163L283.64 173.146C283.706 173.213 283.796 173.25 283.89 173.25C283.984 173.25 284.074 173.213 284.141 173.146L287.124 170.163C287.273 170.014 287.475 169.931 287.686 169.931C287.897 169.931 288.099 170.015 288.248 170.164C288.397 170.313 288.481 170.515 288.481 170.726C288.481 170.937 288.398 171.139 288.249 171.288L285.266 174.272C285.2 174.338 285.163 174.428 285.163 174.522C285.163 174.617 285.2 174.707 285.266 174.773L288.249 177.757C288.398 177.906 288.482 178.108 288.482 178.319C288.482 178.53 288.398 178.733 288.249 178.882Z" fill="#E6E6E6"/>
<path d="M253.041 142.631C253.816 143.099 254.684 143.392 255.585 143.489C256.486 143.586 257.397 143.484 258.254 143.19C259.111 142.897 259.893 142.419 260.545 141.791C261.198 141.162 261.704 140.398 262.03 139.553L284.037 140.285L278.059 130.527L258.077 131.328C256.62 130.875 255.049 130.973 253.659 131.602C252.27 132.232 251.16 133.349 250.539 134.742C249.918 136.135 249.83 137.708 250.291 139.162C250.752 140.616 251.73 141.85 253.041 142.631V142.631Z" fill="#FFB8B8"/>
<path d="M377.124 190.303C377.721 189.622 378.162 188.818 378.415 187.948C378.668 187.078 378.727 186.163 378.588 185.268C378.449 184.373 378.116 183.519 377.612 182.766C377.107 182.014 376.444 181.381 375.668 180.913L380.244 159.371L369.591 163.549L366.879 183.364C366.179 184.719 366 186.284 366.376 187.762C366.752 189.241 367.657 190.529 368.92 191.385C370.183 192.24 371.716 192.602 373.228 192.403C374.74 192.203 376.126 191.456 377.124 190.303Z" fill="#FFB8B8"/>
<path d="M325.571 302.572L318.017 302.572L314.423 273.43L325.573 273.43L325.571 302.572Z" fill="#FFB8B8"/>
<path d="M327.498 309.897L303.14 309.896V309.588C303.14 308.342 303.385 307.109 303.861 305.959C304.338 304.808 305.036 303.763 305.916 302.883C306.797 302.002 307.842 301.304 308.992 300.827C310.143 300.351 311.375 300.105 312.621 300.105H312.621L327.498 300.106L327.498 309.897Z" fill="#4D86B4"/>
<path d="M362.543 302.572L354.988 302.572L351.395 273.43L362.544 273.43L362.543 302.572Z" fill="#FFB8B8"/>
<path d="M364.469 309.897L340.111 309.896V309.588C340.111 308.342 340.356 307.109 340.832 305.959C341.309 304.808 342.007 303.763 342.888 302.883C343.768 302.002 344.813 301.304 345.964 300.827C347.114 300.351 348.347 300.105 349.592 300.105H349.592L364.469 300.106L364.469 309.897Z" fill="#4D86B4"/>
<path d="M326.358 287.354L315.665 286.926C314.935 286.894 314.247 286.577 313.749 286.043C313.252 285.509 312.984 284.8 313.004 284.07L316.017 185.234L316.214 185.163C334.955 178.382 350.46 178.895 363.614 186.728L363.761 186.816L365.566 283.078C365.573 283.447 365.506 283.813 365.37 284.156C365.234 284.498 365.031 284.81 364.773 285.073C364.515 285.336 364.207 285.545 363.867 285.688C363.527 285.83 363.162 285.904 362.794 285.904H353.776C353.134 285.903 352.512 285.679 352.016 285.271C351.52 284.863 351.18 284.296 351.055 283.666L338.772 221.17C338.729 220.954 338.611 220.761 338.439 220.624C338.266 220.487 338.051 220.417 337.831 220.425C337.611 220.433 337.401 220.519 337.239 220.668C337.077 220.817 336.974 221.019 336.947 221.238L329.222 284.917C329.137 285.588 328.81 286.206 328.304 286.655C327.797 287.103 327.144 287.352 326.468 287.355C326.432 287.355 326.395 287.355 326.358 287.354Z" fill="#84C7FE"/>
<path d="M336.762 98.5575C345.12 98.5575 351.896 91.7808 351.896 83.4213C351.896 75.0618 345.12 68.2852 336.762 68.2852C328.403 68.2852 321.627 75.0618 321.627 83.4213C321.627 91.7808 328.403 98.5575 336.762 98.5575Z" fill="#FFB8B8"/>
<path d="M265.613 139.054C265.444 138.515 265.444 137.938 265.612 137.399L267.18 132.374C267.351 131.83 267.685 131.352 268.136 131.005C268.588 130.657 269.135 130.456 269.705 130.43L289.56 129.552L321.773 113.037C322.891 112.68 324.069 112.546 325.239 112.645C326.409 112.743 327.548 113.071 328.591 113.61C329.634 114.149 330.561 114.888 331.318 115.786C332.075 116.683 332.648 117.721 333.004 118.84C333.359 119.959 333.491 121.137 333.391 122.307C333.291 123.477 332.962 124.616 332.421 125.658C331.881 126.701 331.14 127.627 330.242 128.383C329.344 129.139 328.305 129.71 327.186 130.064L307.445 141.516C301.453 144.993 294.404 146.175 287.607 144.842L267.726 140.946C267.344 140.871 266.981 140.717 266.663 140.492C266.344 140.268 266.077 139.979 265.877 139.645C265.766 139.459 265.677 139.26 265.613 139.054Z" fill="#CCCCCC"/>
<path d="M376.477 176.359C375.946 176.55 375.369 176.575 374.824 176.431L369.738 175.078C369.187 174.93 368.696 174.617 368.329 174.181C367.962 173.744 367.739 173.206 367.688 172.638L365.965 152.836L348.095 121.351C347.69 120.249 347.507 119.078 347.555 117.905C347.604 116.731 347.883 115.579 348.377 114.514C348.871 113.449 349.57 112.492 350.434 111.697C351.299 110.903 352.311 110.286 353.414 109.883C354.516 109.48 355.687 109.298 356.86 109.348C358.033 109.398 359.185 109.679 360.249 110.174C361.313 110.669 362.27 111.37 363.063 112.235C363.857 113.1 364.472 114.113 364.874 115.217L377.155 134.455C380.883 140.293 382.364 147.287 381.322 154.136L378.278 174.167C378.219 174.552 378.08 174.921 377.87 175.249C377.659 175.576 377.382 175.856 377.056 176.07C376.875 176.189 376.681 176.286 376.477 176.359Z" fill="#CCCCCC"/>
<path d="M320.208 110.302C322.808 107.451 326.014 105.22 329.591 103.774C333.167 102.327 337.023 101.703 340.873 101.946C341.126 101.961 341.378 101.979 341.629 101.999H341.63C345.279 102.287 348.824 103.352 352.029 105.121C355.234 106.89 358.024 109.323 360.213 112.257C362.439 115.233 364.004 118.649 364.804 122.278C365.603 125.906 365.619 129.664 364.85 133.299C361.916 147.193 362.658 161.611 367.005 175.129L371.065 187.737C371.195 188.141 371.23 188.57 371.169 188.99C371.107 189.41 370.95 189.81 370.71 190.16C370.469 190.509 370.151 190.799 369.781 191.007C369.411 191.214 368.998 191.334 368.574 191.356L347.818 192.472L342.506 183.296V192.758L317.279 194.114C317.229 194.117 317.179 194.119 317.129 194.119C316.747 194.118 316.368 194.039 316.017 193.885C315.667 193.732 315.352 193.507 315.092 193.226C314.833 192.944 314.634 192.612 314.509 192.25C314.384 191.888 314.336 191.504 314.366 191.123L317.218 155.76L313.641 131.743C313.062 127.905 313.352 123.987 314.488 120.276C315.625 116.565 317.58 113.157 320.208 110.302Z" fill="#CCCCCC"/>
<path d="M347.28 97.869C345.879 98.6754 340.34 99.21 339.945 97.6421L339.937 97.6076C339.662 96.4588 339.89 95.2592 339.969 94.0807C340.048 92.9021 339.933 91.6074 339.13 90.7409C337.634 89.1256 334.972 89.9818 332.809 89.5734C331.542 89.2905 330.421 88.5555 329.657 87.506C328.892 86.4564 328.537 85.1642 328.656 83.8712C328.687 83.6262 328.735 83.381 328.789 83.1359C328.925 82.5149 328.914 81.871 328.759 81.2547C328.603 80.6384 328.307 80.0666 327.894 79.584C327.48 79.1015 326.96 78.7214 326.375 78.4735C325.79 78.2257 325.155 78.1169 324.521 78.1556C322.335 78.2807 319.975 78.9431 318.166 77.3236C316.767 76.0712 316.426 72.8111 317.041 71.0368C318.073 68.0552 324.69 66.4942 327.578 65.6361C331.151 64.6036 334.909 64.3804 338.579 64.9827C342.249 65.5849 345.738 66.9975 348.794 69.1177C350.618 70.404 352.322 72.0202 353.1 74.113C353.878 76.2058 353.503 78.8461 351.749 80.2277C353.108 81.6671 354.066 83.4385 354.525 85.3644C354.984 87.2904 354.929 89.3032 354.365 91.2012C353.499 93.9925 349.365 96.6687 347.28 97.869Z" fill="#2F2E41"/>
<path d="M138.408 98.6487H41.5068C40.2579 98.6473 39.0607 98.1501 38.1781 97.2664C37.2955 96.3827 36.7998 95.1847 36.7998 93.9357C36.7998 92.6866 37.2955 91.4887 38.1781 90.605C39.0607 89.7213 40.2579 89.2241 41.5068 89.2227H138.408C139.657 89.2241 140.854 89.7213 141.737 90.605C142.619 91.4887 143.115 92.6866 143.115 93.9357C143.115 95.1847 142.619 96.3827 141.737 97.2664C140.854 98.1501 139.657 98.6473 138.408 98.6487Z" fill="#84C7FE"/>
<path d="M198.234 102.666H31.8647C31.7013 102.666 31.5446 102.601 31.429 102.486C31.3135 102.37 31.2485 102.213 31.2485 102.05C31.2485 101.886 31.3135 101.73 31.429 101.614C31.5446 101.499 31.7013 101.434 31.8647 101.434H198.234C198.397 101.434 198.554 101.499 198.67 101.614C198.785 101.73 198.85 101.886 198.85 102.05C198.85 102.213 198.785 102.37 198.67 102.486C198.554 102.601 198.397 102.666 198.234 102.666Z" fill="#3F3D56"/>
<path d="M138.408 138.117H41.5063C40.2565 138.117 39.0579 137.621 38.1742 136.737C37.2904 135.853 36.7939 134.654 36.7939 133.404C36.7939 132.154 37.2904 130.956 38.1742 130.072C39.0579 129.188 40.2565 128.691 41.5063 128.691H138.408C139.657 128.693 140.854 129.19 141.736 130.074C142.619 130.957 143.115 132.155 143.115 133.404C143.115 134.653 142.619 135.851 141.736 136.735C140.854 137.619 139.657 138.116 138.408 138.117Z" fill="#3BA5FB"/>
<path d="M198.234 142.139H31.8647C31.7013 142.139 31.5446 142.074 31.429 141.958C31.3135 141.843 31.2485 141.686 31.2485 141.523C31.2485 141.359 31.3135 141.202 31.429 141.087C31.5446 140.971 31.7013 140.906 31.8647 140.906H198.234C198.397 140.906 198.554 140.971 198.67 141.087C198.785 141.202 198.85 141.359 198.85 141.523C198.85 141.686 198.785 141.843 198.67 141.958C198.554 142.074 198.397 142.139 198.234 142.139Z" fill="#3F3D56"/>
<path d="M138.408 177.594H41.5063C40.2565 177.594 39.0579 177.097 38.1742 176.214C37.2904 175.33 36.7939 174.131 36.7939 172.881C36.7939 171.631 37.2904 170.432 38.1742 169.548C39.0579 168.665 40.2565 168.168 41.5063 168.168H138.408C139.657 168.169 140.854 168.667 141.736 169.55C142.619 170.434 143.115 171.632 143.115 172.881C143.115 174.13 142.619 175.328 141.736 176.212C140.854 177.095 139.657 177.593 138.408 177.594Z" fill="#BCDEFA"/>
<path d="M198.234 181.611H31.8647C31.7013 181.611 31.5446 181.547 31.429 181.431C31.3135 181.315 31.2485 181.159 31.2485 180.995C31.2485 180.832 31.3135 180.675 31.429 180.559C31.5446 180.444 31.7013 180.379 31.8647 180.379H198.234C198.397 180.379 198.554 180.444 198.67 180.559C198.785 180.675 198.85 180.832 198.85 180.995C198.85 181.159 198.785 181.315 198.67 181.431C198.554 181.547 198.397 181.611 198.234 181.611Z" fill="#3F3D56"/>
</g>
<defs>
<clipPath id="clip0">
<rect width="455" height="311" fill="white"/>
</clipPath>
</defs>
</svg>
