<svg width="68" height="38" viewBox="0 0 68 38" fill="none" xmlns="http://www.w3.org/2000/svg">
<path d="M56.4258 21.74C55.3265 20.4334 55.641 19.852 56.4258 18.684C56.44 18.6707 65.5152 6.86803 66.4502 2.86536L66.4558 2.8627C66.9205 1.40403 66.4558 0.332031 64.209 0.332031H56.7743C54.8817 0.332031 54.009 1.25203 53.5415 2.28136C53.5415 2.28136 49.7562 10.8094 44.4012 16.3374C42.6728 17.9347 41.8738 18.4467 40.9303 18.4467C40.4657 18.4467 39.7432 17.9347 39.7432 16.476V2.8627C39.7432 1.11336 39.2133 0.332031 37.6465 0.332031H25.9562C24.769 0.332031 24.0635 1.14803 24.0635 1.90803C24.0635 3.5667 26.741 3.94803 27.0187 8.6147V18.74C27.0187 20.9587 26.5908 21.3667 25.6417 21.3667C23.1143 21.3667 16.9802 12.804 13.345 3.00403C12.6112 1.1027 11.8943 0.334698 9.9875 0.334698H2.55C0.427833 0.334698 0 1.2547 0 2.28403C0 4.1027 2.52733 13.1454 11.7527 25.092C17.901 33.2467 26.5597 37.6654 34.4363 37.6654C39.1708 37.6654 39.7488 36.684 39.7488 34.996C39.7488 27.204 39.321 26.468 41.6925 26.468C42.7918 26.468 44.6845 26.98 49.1045 30.9134C54.1563 35.5774 54.9865 37.6654 57.8142 37.6654H65.2488C67.3682 37.6654 68.442 36.684 67.8243 34.748C66.4105 30.676 56.8565 22.3 56.4258 21.74Z" fill="#84C7FE"/>
</svg>
